<svg class="svg-icon" style="width: 1em;height: 1em;vertical-align: middle;fill: currentColor;overflow: hidden;" viewBox="0 0 1024 1024" version="1.1" xmlns="http://www.w3.org/2000/svg"><path d="M920.32 426.666667A70.826667 70.826667 0 0 0 853.333333 375.466667h-209.066666l-64.426667-197.973334a71.253333 71.253333 0 0 0-135.68 0L379.733333 375.466667H170.666667a71.253333 71.253333 0 0 0-42.666667 128l170.666667 123.306666-64 198.4a71.253333 71.253333 0 0 0 109.653333 79.786667L512 782.506667l170.666667 122.453333a72.106667 72.106667 0 0 0 42.666666 13.653333 73.386667 73.386667 0 0 0 42.666667-13.653333 71.253333 71.253333 0 0 0 25.6-79.786667L725.333333 626.773333l170.666667-122.026666a71.68 71.68 0 0 0 24.32-78.08z" fill="#FE9517" /></svg>