<svg class="svg-icon" style="width: 1em; height: 1em;vertical-align: middle;fill: currentColor;overflow: hidden;" viewBox="0 0 1024 1024" version="1.1" xmlns="http://www.w3.org/2000/svg"><path d="M511.515 879.852a29.237 29.237 0 0 1-15.655-4.491c-0.242-0.122-0.485-0.364-0.85-0.485-73.424-46.967-141.753-102.431-202.798-164.811-61.167-62.501-115.173-131.922-160.563-206.438-24.515-37.259-37.379-80.464-37.379-125.125 0-125.853 102.309-228.162 228.162-228.162 49.394 0 96.483 15.534 135.926 44.905 20.995 15.655 38.836 34.346 53.157 55.463 14.321-21.117 32.161-39.807 53.157-55.463 39.564-29.37 86.531-44.905 135.926-44.905 125.853 0 228.162 102.309 228.162 228.162 0 44.661-12.986 87.988-37.379 125.125-45.39 74.516-99.396 143.937-160.563 206.438-61.167 62.501-129.494 117.965-203.04 164.932-0.242 0.122-0.364 0.242-0.607 0.364-2.306 1.334-4.611 2.427-7.161 3.155-2.791 0.971-5.583 1.334-8.496 1.334zM322.431 209.806c-92.964 0-168.694 75.73-168.694 168.694 0 33.132 9.588 65.294 27.792 92.843 0.242 0.364 0.364 0.607 0.607 0.971 82.891 136.17 196.608 254.256 329.379 342.365 132.893-88.231 246.489-206.196 329.379-342.365 0.242-0.364 0.364-0.607 0.607-0.971 18.205-27.549 27.792-59.711 27.792-92.843 0-92.964-75.73-168.694-168.694-168.694-73.91 0-138.476 47.21-160.805 117.601-3.884 12.379-15.413 20.753-28.277 20.753a29.57 29.57 0 0 1-28.277-20.753c-22.331-70.39-87.018-117.601-160.805-117.601z"  /></svg>