<svg class="svg-icon" style="width: 1em;height: 1em;vertical-align: middle;fill: currentColor;overflow: hidden;" viewBox="0 0 1024 1024" version="1.1" xmlns="http://www.w3.org/2000/svg"><path d="M722.346667 918.613333a72.106667 72.106667 0 0 1-42.666667-13.653333L512 782.506667l-168.533333 122.453333a71.253333 71.253333 0 0 1-109.653334-79.786667L298.666667 626.773333l-170.666667-122.026666a71.253333 71.253333 0 0 1 42.666667-128h209.066666l64.426667-197.973334a71.253333 71.253333 0 0 1 135.68 0L644.266667 375.466667H853.333333a70.826667 70.826667 0 0 1 66.986667 51.2 71.68 71.68 0 0 1-25.6 80.213333L725.333333 626.773333l64 198.4a71.253333 71.253333 0 0 1-25.6 79.786667 73.386667 73.386667 0 0 1-41.386666 13.653333zM512 693.76a72.106667 72.106667 0 0 1 42.666667 13.653333L695.893333 810.666667 640 643.84a71.68 71.68 0 0 1 26.026667-80.213333L810.666667 460.8h-176.64a72.106667 72.106667 0 0 1-67.84-49.066667L512 244.48l-54.186667 166.826667a71.68 71.68 0 0 1-67.84 49.493333H213.333333l142.08 103.253333A70.826667 70.826667 0 0 1 384 643.84L328.106667 810.666667 469.333333 707.413333a72.106667 72.106667 0 0 1 42.666667-13.653333z m341.333333-232.96z m-353.706666-256z" fill="#FE9517" /></svg>